# xmcd
#
# Track frame offsets:
#  150
#  4804
#  19684
#  33347
#  48040
#  58541
#  68559
#  78715
#  87525
#  99165
#  118209
#  129059
#  135093
#  142417
#  157280
#
# Disc length: 2236 seconds
#
# Revision: 0
# Processed by: cddbd v1.4PL0 Copyright (c) Steve Scherf et al.
# Submitted via: AltoMP3_Maker 3.0
#
DISCID=c108ba0f
DTITLE=Marion Boatwright - ...from the homeplace
DYEAR=1900
DGENRE=
TTITLE0=Piney Woods
TTITLE1=Sally Ann
TTITLE2=Sandy Boys
TTITLE3=Elzic's Farewell
TTITLE4=Barlow Knife
TTITLE5=Ragtime Annie
TTITLE6=Bonaparte's Retreat
TTITLE7=Billy in the Lowground
TTITLE8=Home with the Gals in the Mornin'
TTITLE9=Lorena
TTITLE10=Fisher's Hornpipe/Cumberland Gap
TTITLE11=Old Sledge
TTITLE12=Old Drake
TTITLE13=Reuben's Train
TTITLE14=Shelvin' Rock
EXTD=
EXTT0=
EXTT1=
EXTT2=
EXTT3=
EXTT4=
EXTT5=
EXTT6=
EXTT7=
EXTT8=
EXTT9=
EXTT10=
EXTT11=
EXTT12=
EXTT13=
EXTT14=
PLAYORDER=
